<?xml version="1.0" encoding="UTF-8"?>
<svg viewBox="0 0 205 60" version="1.1" xmlns="http://www.w3.org/2000/svg" xmlns:xlink="http://www.w3.org/1999/xlink">
    <title>jamCMS</title>
    <g stroke="none" stroke-width="1" fill="none" fill-rule="evenodd">
        <g>
            <g>
                <path d="M27,27 C15.7849233,27 7,21.6884843 7,14.9046882 L7,12.0977697 C7,5.3156122 15.7849233,0 27.0024088,0 C38.215063,0 46.9999883,5.3139736 46.9999883,12.0977697 L46.9999883,14.9046882 C47.0024019,18.3383705 44.7800016,21.4885753 40.7426408,23.7629495 C37.0402506,25.8497041 32.1590219,27 27,27 Z M27.0024088,3.6893036 C17.205327,3.6893036 10.6234789,8.03896222 10.6234789,12.1002276 L10.6234789,14.9063268 C10.6234789,18.9675922 17.2029114,23.3147929 26.9999931,23.3147929 C31.5551087,23.3147929 35.8098782,22.3308147 38.9840457,20.5422849 C41.7773454,18.9675922 43.378923,16.9119709 43.3765101,14.9087847 L43.3765101,12.1002276 C43.3765101,8.03732362 36.7970749,3.6893036 27.0024088,3.6893036 Z" id="Shape" fill="#003A42" fill-rule="nonzero"></path>
                <path d="M32,31 L32,33 L43,33 L43,46 L37,46 L37,49 L27,49 L27,46 L26,46 L26,33 L27,33 L27,31 L32,31 Z" id="Combined-Shape" fill="#7379FF"></path>
                <path d="M20.0510699,36 C19.2518314,36 18.4436128,35.8663954 17.6435579,35.5523479 C16.2581568,35.0102513 15.4156501,34.1057331 14.7413182,33.3793543 C14.3608839,32.9700943 14.0310654,32.6168869 13.6506312,32.353517 C13.1697819,32.0179699 11.6006947,32.4625506 10.5655217,32.7604734 C9.82261365,32.9708622 9.05194858,33.1920007 8.33026646,33.2849097 C3.63443436,33.8853623 1.69715871,32.1577172 0.897920246,30.6089793 C-1.30386334,26.3351691 1.12242543,23.5694012 2.03759021,22.5289749 L2.25638071,22.2748191 C3.02867855,21.3119448 6.14889244,18.5515518 6.76362845,18.0071516 C7.50490376,17.3560214 8.66253413,17.39211 9.36217393,18.0870072 C10.0569154,18.784208 10.0152799,19.8776155 9.27727015,20.5310492 C7.83635505,21.7964533 5.61824382,23.8212535 5.19209216,24.3533682 L4.87043745,24.728843 C4.04997305,25.6617714 3.02867855,26.8242846 4.20345296,29.100937 C4.59531655,29.8587974 5.81091008,30.1221673 7.83635505,29.8611009 C8.32945007,29.7981378 8.89601952,29.6246055 9.49606065,29.4541445 C11.3427179,28.9274047 13.8718708,28.1987223 15.8369035,29.5777671 C16.5340941,30.0592042 17.0492315,30.615122 17.5064057,31.1027019 C18.0395034,31.6762801 18.4615732,32.1308427 19.0542669,32.3627311 C20.949907,33.1106095 23.6717263,31.3883392 25.660434,30.1390598 L26.2416983,29.7743347 C29.9595042,27.4738792 32.5009029,29.5355358 34.3565403,31.0428102 C34.754935,31.3668396 35.1663917,31.700851 35.6064219,32.012595 C36.0701272,32.3419993 36.533016,32.4425867 36.9134503,32.3105178 C37.2865371,32.1799846 37.5592088,31.8405983 37.6596239,31.3837322 L37.7208526,31.1073089 C38.2743599,28.6148929 38.8482768,26.0364785 41.0582242,25.1841735 C42.0223719,24.8133057 42.9824377,24.8110022 43.8322919,24.8110022 C44.248647,24.8086986 44.9433885,24.8086986 45.1082977,24.7073435 L45.1082977,24.7073435 C45.1082977,24.7073435 45.1678937,24.636702 45.2274896,24.4217061 C45.8969232,21.9991637 42.6493537,20.0296482 42.615882,20.0104522 C42.5424076,19.967453 42.4705659,19.9206146 42.4036225,19.8660978 L41.3668168,19.0506493 C40.5896206,18.438679 40.4867564,17.3498786 41.1374133,16.6165893 C41.7913357,15.8879069 42.9505988,15.7911588 43.7253458,16.4008256 L44.6747986,17.148704 C45.5213873,17.6769795 50.0359825,20.7483486 48.7812026,25.2962785 C47.9533907,28.2578462 45.2748398,28.2624533 43.8363738,28.2647568 C43.2991941,28.2647568 42.744054,28.2647568 42.44934,28.3791653 C42.007677,28.6939806 41.5578503,30.7233878 41.3137519,31.8121882 L41.2533396,32.0909149 C40.8933149,33.7041516 39.7544613,34.9941266 38.2049674,35.5431338 C36.6309819,36.1028909 34.8806579,35.8172535 33.4021892,34.7768272 C32.8919501,34.4182449 32.41355,34.0312524 31.9531103,33.6565453 C30.0011397,32.0732545 29.5504966,31.8582587 28.2606122,32.6591182 L27.6989411,33.0100221 C25.715948,34.2577658 22.9377984,36 20.0510699,36 Z" id="Path" fill="#003A42" fill-rule="nonzero"></path>
                <path d="M25.9788427,60 C15.8957505,60 8,55.3946427 8,49.5108292 L8,30.1072802 C8,29.1024897 8.82025316,28.2855408 9.83092224,28.2855408 C10.8415913,28.2855408 11.6618445,29.1024897 11.6618445,30.1072802 L11.6618445,49.5108292 C11.6618445,52.7494771 17.541953,56.3565212 25.9788427,56.3565212 C34.6972875,56.3565212 40.3381555,52.5632548 40.3381555,51.2516025 L40.3381555,25.8217394 C40.3381555,24.8161393 41.1592224,24 42.1690778,24 C43.1797468,24 44,24.8161393 44,25.8217394 L44,51.2516025 C44,55.8310505 35.4101266,60 25.9788427,60 Z" id="Path" fill="#003A42" fill-rule="nonzero"></path>
                <path d="M26.6018287,52 C26.0528339,52 25.7218104,51.9728912 25.658371,51.968244 C24.7165399,51.8822705 24,51.1309704 24,50.2332829 L24,32.7427065 C24,31.7807325 24.8198322,31 25.8299827,31 C26.8401331,31 27.6599654,31.7807325 27.6599654,32.7427065 L27.6599654,48.4704385 C30.1812749,48.2868735 35.1897342,47.3860879 39.9566358,43.3685686 C40.7130286,42.7342234 41.8687643,42.7977354 42.539758,43.5180541 C43.2099383,44.2399218 43.1399923,45.3413123 42.3835995,45.977981 C35.8818743,51.4531774 29.0621388,52 26.6018287,52 Z" id="Path" fill="#003A42" fill-rule="nonzero"></path>
                <path d="M25.4841916,19 C20.2587552,19 16.3390894,17.1500355 16.0973963,17.0318536 C15.1973248,16.5954184 14.7641606,15.3810302 15.1298391,14.308088 C15.4978718,13.2351458 16.5274217,12.7214735 17.4274931,13.1523254 C17.5059649,13.1876869 25.0800619,16.718253 32.6055065,13.3188967 C33.5126403,12.9029338 34.5390513,13.4482453 34.8827578,14.5277015 C35.2319572,15.6071576 34.7744667,16.8178235 33.864194,17.228203 C30.9419045,18.5523979 28.0541427,19 25.4841916,19 Z" id="Path" fill="#003A42" fill-rule="nonzero"></path>
            </g>
            <path d="M63.085,25.625 C64.345,25.625 64.345,25.625 65.2,26.12 C66.055,26.615 66.055,26.615 66.055,27.425 L66.055,27.425 L66.055,48.44 L66.0486777,48.8855372 C65.9854545,51.0909091 65.9854545,51.0909091 65.29,52.85 C64.525,54.785 64.525,54.785 63.0175,55.865 C61.51,56.945 61.51,56.945 59.26,56.945 C57.46,56.945 57.46,56.945 56.8525,56.2025 C56.245,55.46 56.245,55.46 56.245,54.56 C56.245,53.39 56.245,53.39 56.8975,52.715 C57.55,52.04 57.55,52.04 58.45,52.04 C59.26,52.04 59.26,52.04 59.6425,51.59 C60.025,51.14 60.025,51.14 60.1375,50.3075 C60.25,49.475 60.25,49.475 60.25,48.44 L60.25,48.44 L60.25,27.425 L60.2581,27.26615 C60.331,26.5655 60.331,26.5655 61.06,26.12 C61.87,25.625 61.87,25.625 63.085,25.625 Z M77.8408306,25.355 C81.3508306,25.355 81.3508306,25.355 83.4658306,26.615 C85.5808306,27.875 85.5808306,27.875 86.5483306,29.855 C87.5158306,31.835 87.5158306,31.835 87.5158306,34.13 L87.5158306,34.13 L87.5158306,45.155 L87.5077306,45.30575 C87.4348306,45.974 87.4348306,45.974 86.7058306,46.46 C85.8958306,47 85.8958306,47 84.6808306,47 C83.5558306,47 83.5558306,47 82.8133306,46.46 C82.0708306,45.92 82.0708306,45.92 82.0708306,45.155 L82.0708306,45.155 L82.0708306,43.85 L81.7604009,44.1938281 C80.6505181,45.38 80.6505181,45.38 79.2133306,46.325 C77.5708306,47.405 77.5708306,47.405 75.2308306,47.405 C72.8458306,47.405 72.8458306,47.405 71.1133306,45.9425 C69.3808306,44.48 69.3808306,44.48 69.3808306,41.42 C69.3808306,38.855 69.3808306,38.855 70.7083306,37.415 C72.0358306,35.975 72.0358306,35.975 74.3983306,35.39 C76.7608306,34.805 76.7608306,34.805 79.8658306,34.805 L79.8658306,34.805 L81.7108306,34.805 L81.7108306,34.22 L81.7030245,33.9380612 C81.6561878,33.095 81.6561878,33.095 81.3283306,32.285 C80.9458306,31.34 80.9458306,31.34 80.1133306,30.71 C79.2808306,30.08 79.2808306,30.08 77.7508306,30.08 C76.0408306,30.08 76.0408306,30.08 75.1183306,30.4175 C74.1958306,30.755 74.1958306,30.755 73.7008306,31.115 C73.2058306,31.475 73.2058306,31.475 72.6208306,31.475 C71.6758306,31.475 71.6758306,31.475 71.1583306,30.53 C70.6408306,29.585 70.6408306,29.585 70.6408306,28.595 C70.6408306,27.65 70.6408306,27.65 71.7883306,26.9075 C72.9358306,26.165 72.9358306,26.165 74.6008306,25.76 C76.2658306,25.355 76.2658306,25.355 77.8408306,25.355 Z M115.698915,25.355 C117.768915,25.355 117.768915,25.355 119.591415,26.4125 C121.413915,27.47 121.413915,27.47 122.561415,29.5175 C123.708915,31.565 123.708915,31.565 123.708915,34.49 L123.708915,34.49 L123.708915,45.155 L123.700365,45.2891 C123.623415,45.8885 123.623415,45.8885 122.853915,46.415 C121.998915,47 121.998915,47 120.783915,47 C119.613915,47 119.613915,47 118.758915,46.415 C117.903915,45.83 117.903915,45.83 117.903915,45.155 L117.903915,45.155 L117.903915,34.49 L117.897526,34.1955556 C117.846415,33.04 117.846415,33.04 117.386415,32.24 C116.868915,31.34 116.868915,31.34 116.013915,30.8675 C115.158915,30.395 115.158915,30.395 114.258915,30.395 C113.358915,30.395 113.358915,30.395 112.571415,30.8675 C111.783915,31.34 111.783915,31.34 111.243915,32.24 C110.703915,33.14 110.703915,33.14 110.703915,34.445 L110.703915,34.445 L110.703915,45.2 L110.697509,45.3539063 C110.62704,46.180625 110.62704,46.180625 109.781415,46.5725 C108.858915,47 108.858915,47 107.778915,47 C106.788915,47 106.788915,47 105.843915,46.5725 C104.898915,46.145 104.898915,46.145 104.898915,45.2 L104.898915,45.2 L104.898915,34.49 L104.892526,34.2144444 C104.841415,33.13 104.841415,33.13 104.381415,32.33 C103.863915,31.43 103.863915,31.43 103.031415,30.935 C102.198915,30.44 102.198915,30.44 101.253915,30.44 C100.353915,30.44 100.353915,30.44 99.5439153,30.89 C98.7339153,31.34 98.7339153,31.34 98.2164153,32.24 C97.6989153,33.14 97.6989153,33.14 97.6989153,34.49 L97.6989153,34.49 L97.6989153,45.155 L97.6903653,45.2891 C97.6134153,45.8885 97.6134153,45.8885 96.8439153,46.415 C95.9889153,47 95.9889153,47 94.7739153,47 C93.5139153,47 93.5139153,47 92.7039153,46.415 C91.8939153,45.83 91.8939153,45.83 91.8939153,45.155 L91.8939153,45.155 L91.8939153,27.425 L91.9020153,27.26615 C91.9749153,26.5655 91.9749153,26.5655 92.7039153,26.12 C93.5139153,25.625 93.5139153,25.625 94.7739153,25.625 C95.8539153,25.625 95.8539153,25.625 96.5964153,26.12 C97.3389153,26.615 97.3389153,26.615 97.3389153,27.425 L97.3389153,27.425 L97.3389153,28.775 L97.4991153,28.516475 C98.2524153,27.36425 98.2524153,27.36425 99.5889153,26.4125 C101.073915,25.355 101.073915,25.355 103.323915,25.355 C105.258915,25.355 105.258915,25.355 106.743915,26.615 C108.228915,27.875 108.228915,27.875 108.948915,29.855 C110.118915,27.56 110.118915,27.56 111.941415,26.4575 C113.763915,25.355 113.763915,25.355 115.698915,25.355 Z M81.7108306,37.82 L81.0358306,37.82 L80.4472306,37.8272 C79.2808306,37.856 79.2808306,37.856 78.2008306,38 C76.8508306,38.18 76.8508306,38.18 76.0183306,38.7875 C75.1858306,39.395 75.1858306,39.395 75.1858306,40.655 C75.1858306,41.915 75.1858306,41.915 75.8833306,42.5 C76.5808306,43.085 76.5808306,43.085 77.5708306,43.085 C78.5158306,43.085 78.5158306,43.085 79.4608306,42.455 C80.4058306,41.825 80.4058306,41.825 81.0583306,40.835 C81.7108306,39.845 81.7108306,39.845 81.7108306,38.765 L81.7108306,38.765 L81.7108306,37.82 Z M63.13,15.185 C64.48,15.185 64.48,15.185 65.38,16.0175 C66.28,16.85 66.28,16.85 66.28,18.02 C66.28,19.1 66.28,19.1 65.38,19.9775 C64.48,20.855 64.48,20.855 63.13,20.855 C61.825,20.855 61.825,20.855 60.88,19.9775 C59.935,19.1 59.935,19.1 59.935,18.02 C59.935,16.85 59.935,16.85 60.88,16.0175 C61.825,15.185 61.825,15.185 63.13,15.185 Z" id="Combined-Shape" fill="#555BD6"></path>
            <path d="M195.227924,13.88 C196.262924,13.88 196.262924,13.88 197.680424,14.0375 C199.097924,14.195 199.097924,14.195 200.515424,14.6 C201.932924,15.005 201.932924,15.005 202.855424,15.7025 C203.777924,16.4 203.777924,16.4 203.777924,17.48 C203.777924,18.02 203.777924,18.02 203.530424,18.74 C203.282924,19.46 203.282924,19.46 202.765424,20.0225 C202.247924,20.585 202.247924,20.585 201.437924,20.585 C200.717924,20.585 200.717924,20.585 200.020424,20.1575 C199.322924,19.73 199.322924,19.73 198.220424,19.3025 C197.117924,18.875 197.117924,18.875 195.227924,18.875 C193.652924,18.875 193.652924,18.875 192.482924,19.3025 C191.312924,19.73 191.312924,19.73 190.727924,20.4725 C190.142924,21.215 190.142924,21.215 190.142924,22.34 C190.142924,23.51 190.142924,23.51 190.930424,24.32 C191.717924,25.13 191.717924,25.13 193.000424,25.76 C194.282924,26.39 194.282924,26.39 195.812924,27.02 C197.342924,27.65 197.342924,27.65 198.895424,28.4825 C200.447924,29.315 200.447924,29.315 201.752924,30.485 C203.057924,31.655 203.057924,31.655 203.822924,33.3875 C204.587924,35.12 204.587924,35.12 204.587924,37.64 C204.587924,40.835 204.587924,40.835 203.192924,43.0175 C201.797924,45.2 201.797924,45.2 199.390424,46.3025 C196.982924,47.405 196.982924,47.405 193.877924,47.405 C190.952924,47.405 190.952924,47.405 188.590424,46.55 C186.227924,45.695 186.227924,45.695 184.855424,44.4125 C183.482924,43.13 183.482924,43.13 183.482924,41.825 C183.482924,41.195 183.482924,41.195 183.820424,40.4525 C184.157924,39.71 184.157924,39.71 184.742924,39.1925 C185.327924,38.675 185.327924,38.675 186.047924,38.675 C186.767924,38.675 186.767924,38.675 187.397924,39.1925 C188.027924,39.71 188.027924,39.71 188.837924,40.4075 C189.647924,41.105 189.647924,41.105 190.817924,41.6225 C191.987924,42.14 191.987924,42.14 193.697924,42.14 C195.047924,42.14 195.047924,42.14 196.195424,41.7125 C197.342924,41.285 197.342924,41.285 198.040424,40.43 C198.737924,39.575 198.737924,39.575 198.737924,38.225 C198.737924,36.785 198.737924,36.785 197.972924,35.795 C197.207924,34.805 197.207924,34.805 195.902924,34.085 C194.597924,33.365 194.597924,33.365 193.067924,32.69 C191.537924,32.015 191.537924,32.015 189.985424,31.25 C188.432924,30.485 188.432924,30.485 187.150424,29.405 C185.867924,28.325 185.867924,28.325 185.080424,26.75 C184.292924,25.175 184.292924,25.175 184.292924,22.88 C184.292924,20.36 184.292924,20.36 185.260424,18.65 C186.227924,16.94 186.227924,16.94 187.825424,15.8825 C189.422924,14.825 189.422924,14.825 191.357924,14.3525 C193.292924,13.88 193.292924,13.88 195.227924,13.88 Z M138.78,14.105 C141.93,14.105 141.93,14.105 144.3375,15.1625 C146.745,16.22 146.745,16.22 148.1175,18.11 C149.49,20 149.49,20 149.49,22.655 C149.49,24.41 149.49,24.41 148.77,24.9725 C148.05,25.535 148.05,25.535 146.565,25.535 C145.35,25.535 145.35,25.535 144.5175,25.1075 C143.685,24.68 143.685,24.68 143.64,23.69 C143.64,23.15 143.64,23.15 143.4825,22.4075 C143.325,21.665 143.325,21.665 142.875,20.945 C142.425,20.225 142.425,20.225 141.5025,19.73 C140.58,19.235 140.58,19.235 138.96,19.235 C136.665,19.235 136.665,19.235 135.4275,20.5175 C134.19,21.8 134.19,21.8 134.19,24.41 L134.19,24.41 L134.19,36.965 L134.194922,37.2914258 C134.26875,39.69875 134.26875,39.69875 135.45,40.88 C136.71,42.14 136.71,42.14 139.05,42.14 C140.58,42.14 140.58,42.14 141.48,41.645 C142.38,41.15 142.38,41.15 142.8075,40.4075 C143.235,39.665 143.235,39.665 143.3925,38.855 C143.55,38.045 143.55,38.045 143.64,37.325 C143.73,36.29 143.73,36.29 144.54,35.885 C145.35,35.48 145.35,35.48 146.52,35.48 C148.05,35.48 148.05,35.48 148.77,36.065 C149.49,36.65 149.49,36.65 149.49,38.36 C149.49,41.06 149.49,41.06 148.1175,43.085 C146.745,45.11 146.745,45.11 144.315,46.19 C141.885,47.27 141.885,47.27 138.735,47.27 C135.945,47.27 135.945,47.27 133.56,46.2575 C131.175,45.245 131.175,45.245 129.78,42.9725 C128.385,40.7 128.385,40.7 128.385,36.965 L128.385,36.965 L128.385,24.41 L128.389827,23.9756488 C128.467059,20.5413235 128.467059,20.5413235 129.78,18.4025 C131.175,16.13 131.175,16.13 133.56,15.1175 C135.945,14.105 135.945,14.105 138.78,14.105 Z M176.700339,14.105 C177.825339,14.105 177.825339,14.105 178.725339,14.7575 C179.625339,15.41 179.625339,15.41 179.625339,17.03 L179.625339,17.03 L179.625339,45.155 L179.618932,45.3020313 C179.548464,46.094375 179.548464,46.094375 178.702839,46.5275 C177.780339,47 177.780339,47 176.700339,47 C175.620339,47 175.620339,47 174.697839,46.5275 C173.775339,46.055 173.775339,46.055 173.775339,45.155 L173.775339,45.155 L173.775339,25.805 L168.555339,35.165 L168.436869,35.3376531 C168.073196,35.8335714 168.073196,35.8335714 167.610339,36.065 C167.070339,36.335 167.070339,36.335 166.530339,36.335 C166.035339,36.335 166.035339,36.335 165.517839,36.0875 C165.000339,35.84 165.000339,35.84 164.595339,35.165 L164.595339,35.165 L159.420339,25.445 L159.420339,45.155 L159.414089,45.3020313 C159.345339,46.094375 159.345339,46.094375 158.520339,46.5275 C157.620339,47 157.620339,47 156.495339,47 C155.415339,47 155.415339,47 154.492839,46.5275 C153.570339,46.055 153.570339,46.055 153.570339,45.155 L153.570339,45.155 L153.570339,17.03 L153.575045,16.8035077 C153.636232,15.3633929 153.636232,15.3633929 154.492839,14.7575 C155.415339,14.105 155.415339,14.105 156.495339,14.105 C157.575339,14.105 157.575339,14.105 158.317839,14.33 C159.060339,14.555 159.060339,14.555 159.712839,15.23 C160.365339,15.905 160.365339,15.905 161.085339,17.21 L161.085339,17.21 L166.575339,27.29 L172.110339,17.21 L172.287839,16.9277778 C172.987839,15.83 172.987839,15.83 173.527839,15.23 C174.135339,14.555 174.135339,14.555 174.900339,14.33 C175.665339,14.105 175.665339,14.105 176.700339,14.105 Z" id="Combined-Shape" fill="#003A42"></path>
        </g>
    </g>
</svg>