<?xml version="1.0" encoding="UTF-8"?>
<svg width="49px" height="60px" viewBox="0 0 49 60" version="1.1" xmlns="http://www.w3.org/2000/svg" xmlns:xlink="http://www.w3.org/1999/xlink">
    <title>jamCMS</title>
    <g stroke="none" stroke-width="1" fill="none" fill-rule="evenodd">
        <g>
            <path d="M27,27 C15.7849233,27 7,21.6884843 7,14.9046882 L7,12.0977697 C7,5.3156122 15.7849233,0 27.0024088,0 C38.215063,0 46.9999883,5.3139736 46.9999883,12.0977697 L46.9999883,14.9046882 C47.0024019,18.3383705 44.7800016,21.4885753 40.7426408,23.7629495 C37.0402506,25.8497041 32.1590219,27 27,27 Z M27.0024088,3.6893036 C17.205327,3.6893036 10.6234789,8.03896222 10.6234789,12.1002276 L10.6234789,14.9063268 C10.6234789,18.9675922 17.2029114,23.3147929 26.9999931,23.3147929 C31.5551087,23.3147929 35.8098782,22.3308147 38.9840457,20.5422849 C41.7773454,18.9675922 43.378923,16.9119709 43.3765101,14.9087847 L43.3765101,12.1002276 C43.3765101,8.03732362 36.7970749,3.6893036 27.0024088,3.6893036 Z" id="Shape" fill="#003A42" fill-rule="nonzero"></path>
            <path d="M32,31 L32,33 L43,33 L43,46 L37,46 L37,49 L27,49 L27,46 L26,46 L26,33 L27,33 L27,31 L32,31 Z" id="Combined-Shape" fill="#7379FF"></path>
            <path d="M20.0510699,36 C19.2518314,36 18.4436128,35.8663954 17.6435579,35.5523479 C16.2581568,35.0102513 15.4156501,34.1057331 14.7413182,33.3793543 C14.3608839,32.9700943 14.0310654,32.6168869 13.6506312,32.353517 C13.1697819,32.0179699 11.6006947,32.4625506 10.5655217,32.7604734 C9.82261365,32.9708622 9.05194858,33.1920007 8.33026646,33.2849097 C3.63443436,33.8853623 1.69715871,32.1577172 0.897920246,30.6089793 C-1.30386334,26.3351691 1.12242543,23.5694012 2.03759021,22.5289749 L2.25638071,22.2748191 C3.02867855,21.3119448 6.14889244,18.5515518 6.76362845,18.0071516 C7.50490376,17.3560214 8.66253413,17.39211 9.36217393,18.0870072 C10.0569154,18.784208 10.0152799,19.8776155 9.27727015,20.5310492 C7.83635505,21.7964533 5.61824382,23.8212535 5.19209216,24.3533682 L4.87043745,24.728843 C4.04997305,25.6617714 3.02867855,26.8242846 4.20345296,29.100937 C4.59531655,29.8587974 5.81091008,30.1221673 7.83635505,29.8611009 C8.32945007,29.7981378 8.89601952,29.6246055 9.49606065,29.4541445 C11.3427179,28.9274047 13.8718708,28.1987223 15.8369035,29.5777671 C16.5340941,30.0592042 17.0492315,30.615122 17.5064057,31.1027019 C18.0395034,31.6762801 18.4615732,32.1308427 19.0542669,32.3627311 C20.949907,33.1106095 23.6717263,31.3883392 25.660434,30.1390598 L26.2416983,29.7743347 C29.9595042,27.4738792 32.5009029,29.5355358 34.3565403,31.0428102 C34.754935,31.3668396 35.1663917,31.700851 35.6064219,32.012595 C36.0701272,32.3419993 36.533016,32.4425867 36.9134503,32.3105178 C37.2865371,32.1799846 37.5592088,31.8405983 37.6596239,31.3837322 L37.7208526,31.1073089 C38.2743599,28.6148929 38.8482768,26.0364785 41.0582242,25.1841735 C42.0223719,24.8133057 42.9824377,24.8110022 43.8322919,24.8110022 C44.248647,24.8086986 44.9433885,24.8086986 45.1082977,24.7073435 L45.1082977,24.7073435 C45.1082977,24.7073435 45.1678937,24.636702 45.2274896,24.4217061 C45.8969232,21.9991637 42.6493537,20.0296482 42.615882,20.0104522 C42.5424076,19.967453 42.4705659,19.9206146 42.4036225,19.8660978 L41.3668168,19.0506493 C40.5896206,18.438679 40.4867564,17.3498786 41.1374133,16.6165893 C41.7913357,15.8879069 42.9505988,15.7911588 43.7253458,16.4008256 L44.6747986,17.148704 C45.5213873,17.6769795 50.0359825,20.7483486 48.7812026,25.2962785 C47.9533907,28.2578462 45.2748398,28.2624533 43.8363738,28.2647568 C43.2991941,28.2647568 42.744054,28.2647568 42.44934,28.3791653 C42.007677,28.6939806 41.5578503,30.7233878 41.3137519,31.8121882 L41.2533396,32.0909149 C40.8933149,33.7041516 39.7544613,34.9941266 38.2049674,35.5431338 C36.6309819,36.1028909 34.8806579,35.8172535 33.4021892,34.7768272 C32.8919501,34.4182449 32.41355,34.0312524 31.9531103,33.6565453 C30.0011397,32.0732545 29.5504966,31.8582587 28.2606122,32.6591182 L27.6989411,33.0100221 C25.715948,34.2577658 22.9377984,36 20.0510699,36 Z" id="Path" fill="#003A42" fill-rule="nonzero"></path>
            <path d="M25.9788427,60 C15.8957505,60 8,55.3946427 8,49.5108292 L8,30.1072802 C8,29.1024897 8.82025316,28.2855408 9.83092224,28.2855408 C10.8415913,28.2855408 11.6618445,29.1024897 11.6618445,30.1072802 L11.6618445,49.5108292 C11.6618445,52.7494771 17.541953,56.3565212 25.9788427,56.3565212 C34.6972875,56.3565212 40.3381555,52.5632548 40.3381555,51.2516025 L40.3381555,25.8217394 C40.3381555,24.8161393 41.1592224,24 42.1690778,24 C43.1797468,24 44,24.8161393 44,25.8217394 L44,51.2516025 C44,55.8310505 35.4101266,60 25.9788427,60 Z" id="Path" fill="#003A42" fill-rule="nonzero"></path>
            <path d="M26.6018287,52 C26.0528339,52 25.7218104,51.9728912 25.658371,51.968244 C24.7165399,51.8822705 24,51.1309704 24,50.2332829 L24,32.7427065 C24,31.7807325 24.8198322,31 25.8299827,31 C26.8401331,31 27.6599654,31.7807325 27.6599654,32.7427065 L27.6599654,48.4704385 C30.1812749,48.2868735 35.1897342,47.3860879 39.9566358,43.3685686 C40.7130286,42.7342234 41.8687643,42.7977354 42.539758,43.5180541 C43.2099383,44.2399218 43.1399923,45.3413123 42.3835995,45.977981 C35.8818743,51.4531774 29.0621388,52 26.6018287,52 Z" id="Path" fill="#003A42" fill-rule="nonzero"></path>
            <path d="M25.4841916,19 C20.2587552,19 16.3390894,17.1500355 16.0973963,17.0318536 C15.1973248,16.5954184 14.7641606,15.3810302 15.1298391,14.308088 C15.4978718,13.2351458 16.5274217,12.7214735 17.4274931,13.1523254 C17.5059649,13.1876869 25.0800619,16.718253 32.6055065,13.3188967 C33.5126403,12.9029338 34.5390513,13.4482453 34.8827578,14.5277015 C35.2319572,15.6071576 34.7744667,16.8178235 33.864194,17.228203 C30.9419045,18.5523979 28.0541427,19 25.4841916,19 Z" id="Path" fill="#003A42" fill-rule="nonzero"></path>
        </g>
    </g>
</svg>